<svg
  width="179"
  height="42"
  viewBox="0 0 179 42"
  fill="none"
  xmlns="http://www.w3.org/2000/svg"
>
  <path
    d="M46.4995 26.6285C46.3813 26.6285 46.1687 26.5104 46.1214 26.1796C46.0978 26.0142 45.9324 25.7307 45.8142 25.7543C45.5543 25.4944 45.1999 24.8092 45.2944 24.7855C45.3181 24.7383 45.1999 24.3602 44.9636 23.8168C44.751 23.297 44.3021 22.5645 43.9713 21.9975C42.4355 19.4693 40.7579 16.9884 39.482 14.2948C39.1276 13.5387 38.6314 12.6409 37.8044 12.57C36.9066 12.4991 36.4576 12.0974 35.607 11.8139C35.4653 11.7666 35.2999 11.7194 35.1581 11.6721C35.1581 11.5067 35.1345 11.3413 35.1345 11.1523C35.1109 10.9633 35.0872 10.7743 35.0636 10.5852C35.04 10.3726 35.0163 10.1363 34.9691 9.92367C34.6383 8.38786 35.3471 7.72628 35.5362 7.67903C35.9851 7.41912 36.056 7.41912 36.1741 7.15922C36.3631 6.78117 36.5522 6.73392 37.1428 6.71029C37.4264 6.75754 37.4736 6.75754 37.4736 6.52127C37.4973 6.40313 37.6154 6.28499 37.7335 6.14322C37.8517 6.00146 37.9698 5.88332 37.9698 5.76518C37.9462 5.64704 37.9935 5.64704 38.0407 5.64704C38.1352 5.62341 38.2297 5.29262 38.2061 5.07997C38.1825 4.96183 38.1588 4.74918 38.1588 4.74918C38.1116 4.74918 38.1116 4.74918 38.088 4.65467C38.0643 4.53653 38.0643 4.44202 38.0643 4.44202C38.0171 4.44202 37.9698 4.46565 37.9226 4.253C37.8989 4.04035 37.7572 3.73319 37.3082 3.02436C37.0956 2.74082 36.8593 2.33915 36.8121 2.1265C36.7412 1.79571 36.5994 1.60669 35.9615 1.08688C35.7961 0.897855 35.5834 0.732461 35.5362 0.519811C35.418 0.330789 35.2763 0.236278 35.04 0.307161C34.8273 0.236278 34.6147 0.189022 34.5438 0.0945111C34.4257 0.0472556 34.3311 0.0236278 34.2366 0C29.8182 1.89022 24.9273 2.81171 20.249 1.98473C20.1072 2.1265 19.9655 2.29189 19.8473 2.45729C19.5402 2.88259 19.2803 3.30789 19.0912 3.80407C18.7841 4.56016 18.6896 5.50527 18.7841 6.33224C19.3275 6.59215 19.8237 6.94657 20.2254 7.39549C20.3199 7.44275 20.3908 7.51363 20.4853 7.56089C20.9342 7.74991 21.4067 7.93893 21.8557 8.12795C21.9738 8.17521 22.092 8.24609 22.1865 8.31698C22.6826 8.26972 23.1552 8.26972 23.675 8.41149C24.5965 8.64777 25.3526 9.26209 25.896 10.0418C26.085 9.94729 26.2268 9.90004 26.3213 9.92367C26.7703 10.5852 26.9829 11.2468 27.3137 11.932C27.5736 12.4755 26.6994 13.9876 26.1087 14.5075C25.6834 14.9091 25.3053 15.4526 25.1399 15.618C25.0454 15.7834 24.9745 15.9251 24.9037 16.0905C24.8564 16.1614 24.8091 16.2559 24.7619 16.3268C24.6674 16.4686 24.5729 16.6103 24.502 16.7285C24.3366 16.9647 24.2185 17.1538 24.1003 17.3192C23.8877 17.6263 23.7932 17.7681 23.7459 17.8862C23.6986 18.028 23.6514 18.1698 23.6514 18.217C23.5569 18.1934 22.7535 19.2803 22.4227 19.7764C22.3519 19.9891 22.1156 20.2963 21.9266 20.4617C21.643 20.6034 21.3595 21.0051 21.2414 21.265C21.0996 21.643 20.9815 21.9266 20.8633 21.8793C20.7924 21.9266 20.6979 22.0211 20.6034 22.1392C20.5089 22.281 20.4144 22.4936 20.3199 22.7299C20.2254 22.9898 20.1072 23.3206 19.9891 23.6042C19.8709 23.9113 19.7764 24.1476 19.7055 24.2421C19.611 24.4311 19.5165 24.8092 19.3984 25.2345C19.3275 25.6361 19.233 26.0851 19.1857 26.3686C19.1857 26.5576 19.1857 26.8412 19.1857 27.1483C19.1857 27.4082 19.2094 27.6918 19.2094 27.9517C19.1857 27.9753 19.1857 27.9989 19.1857 28.0225L19.1149 28.0698C19.0912 28.0698 19.0912 28.0698 19.0912 28.0934C19.0676 28.1171 19.0676 28.1407 19.044 28.1643C19.0203 28.2352 18.9967 28.2824 18.9731 28.377C18.9495 28.4478 18.9495 28.4242 18.9258 28.5424C18.9022 28.6605 18.8786 28.755 18.8549 28.8495C18.6659 29.8183 18.3824 30.8106 18.217 31.0705C18.217 31.2832 17.8153 32.8662 18.1225 35.04C18.2879 35.9851 18.5714 36.8121 18.9495 37.4973C19.044 37.6627 19.1385 37.8281 19.2094 37.9935C19.3039 38.1352 19.422 38.277 19.5165 38.3951C19.7055 38.655 19.8709 38.8677 20.0127 39.0567C20.0836 39.2457 20.249 39.3639 20.3435 39.5056C20.7924 39.8601 21.2177 40.2145 21.643 40.5216C22.092 40.7815 22.5645 40.9942 22.9898 41.1123C23.8404 41.3722 24.5492 41.3722 24.5965 41.2305C24.691 41.0178 25.8015 41.1596 26.4631 41.3722C26.912 41.4904 27.1719 41.4668 27.4082 41.4668C27.4082 41.4668 27.7626 41.4195 28.2352 41.3722C28.8022 41.3014 29.4874 41.2068 30.1727 41.0887C30.3617 41.0651 30.5507 41.0415 30.7397 41.0178L31.165 40.9469C31.3304 40.8997 31.4958 40.8761 31.6612 40.8288C31.9684 40.7579 32.1574 40.7107 32.2755 40.687C32.3937 40.5689 32.7717 40.4035 32.9607 40.4035C33.2443 40.4035 33.5514 40.3326 33.5514 40.2145C33.5514 40.0963 33.6696 40.0018 33.8586 40.0255C34.0712 40.0491 34.6856 39.9073 35.3471 39.7655C36.4813 39.5529 36.7412 39.4348 37.3082 39.5293C37.7099 39.6238 38.1825 39.6002 38.8204 39.482C39.3639 39.3166 39.86 39.0803 40.309 38.8677C40.4035 38.7732 40.5216 38.7023 40.6634 38.6314C40.7106 38.6078 40.7106 38.6078 40.7815 38.5842C40.876 38.5605 40.9706 38.5369 41.0651 38.5133C41.2541 38.466 41.4195 38.4188 41.5849 38.3951C42.2465 38.2534 42.719 38.088 43.0025 37.9935C43.8059 37.8281 44.0894 37.4737 44.1839 37.2846C44.3021 37.0956 44.6092 36.6939 44.9873 36.1741C45.3417 35.6307 45.6961 34.9455 46.0033 34.2367C46.2395 33.6932 46.3577 33.2679 46.4758 32.9135C46.5467 32.5827 46.5703 32.2992 46.5467 31.992C46.5467 31.8266 46.5703 31.6376 46.5703 31.4958C46.5703 31.3304 46.5703 31.1887 46.5703 31.0233C46.5703 30.6689 46.5703 30.3381 46.594 30.0545C46.6176 29.4166 46.6176 28.8259 46.6885 28.5896C46.8066 28.4478 46.8302 28.1171 46.8302 27.6209C46.7594 26.9357 46.7357 26.7703 46.4995 26.6285Z"
    fill="black"
  />
  <path
    d="M0.189022 19.3038C0.307161 19.1384 0.236278 18.9966 0.165394 18.8076C0.0708833 18.5949 0 18.4768 0 18.4532C0.165394 18.3586 0.283533 18.2169 0.259906 18.1224C0.236278 18.0515 0.354417 17.8625 0.496183 17.7443C0.472556 17.6734 0.590694 17.4844 0.567067 17.4372C0.708833 17.2954 0.826972 17.13 0.992367 17.0355C1.15776 16.941 1.29953 16.7992 1.2759 16.752C1.25227 16.7047 1.41767 16.5866 1.58306 16.5157C1.74846 16.4448 1.74846 16.4212 1.72483 16.3503C1.7012 16.303 1.84297 16.1613 2.17376 16.0195C2.33915 15.925 2.48092 15.8068 2.45729 15.7596C2.59906 15.5942 3.21338 15.1689 3.37877 15.098C3.37877 15.1216 3.37877 15.0744 3.35514 15.0508C3.35514 15.0271 3.66231 14.8145 4.44202 14.3183C4.60742 14.2474 4.77281 14.1293 4.91458 14.0348C4.89095 13.9639 5.05634 13.893 5.38713 13.7512C5.74155 13.6331 6.07234 13.4913 6.40313 13.3496C7.39549 12.9006 7.74991 12.7589 8.26972 12.6171C8.62414 12.5226 9.30934 12.2627 9.80553 12.0737C11.0105 11.6484 11.5304 11.483 11.8611 11.3884C12.2156 11.2939 12.2156 11.2703 12.2156 11.2703C12.2156 11.2703 12.381 11.2231 12.57 11.1758C12.7354 11.1285 12.7354 11.1285 12.7354 11.1049C12.7354 11.1049 13.0898 11.0104 13.2552 10.9631C13.4206 10.9159 13.6569 10.8686 13.8222 10.8214C14.0113 10.7741 14.1294 10.7505 14.1294 10.7741C14.1294 10.7741 14.1294 10.7978 14.3184 10.7505C14.4838 10.7032 14.6729 10.6796 14.8619 10.656C15.0509 10.6324 15.2163 10.6087 15.4053 10.5615C15.7597 10.467 15.7597 10.467 15.5943 10.5615C15.4526 10.7032 15.4526 10.7505 15.996 10.6087C16.3504 10.5142 16.3504 10.5378 16.5394 10.5615C16.5867 10.6796 16.634 11.0813 16.7048 11.483C16.7757 11.8846 16.8466 12.3099 16.7993 12.3808C16.823 12.4281 16.7285 12.6407 16.7993 12.7116C16.7048 12.9006 16.5867 13.066 16.6103 13.0896C16.4686 13.2078 16.4449 13.4913 16.5394 13.6331C16.5867 13.704 16.4922 13.8694 16.4922 13.8694C16.4922 13.8694 16.3977 14.0348 16.4449 14.1056C16.4922 14.1765 16.3977 14.3419 16.4213 14.3655C16.2795 14.4837 16.185 14.6491 16.2087 14.6727C16.2323 14.6963 16.2559 14.72 16.2323 14.72C16.0905 14.8145 15.9487 14.9326 15.9487 14.9562C15.8306 15.098 15.3344 15.6414 14.9564 16.0431C14.5783 16.4448 14.602 16.492 14.5783 16.7047C14.6492 16.7756 14.6492 16.7992 14.9564 16.5866C15.1218 16.492 15.2872 16.3975 15.3108 16.4212C15.4762 16.3267 15.4998 16.3503 15.7834 16.1376C16.3504 15.6887 16.6576 15.4761 16.9411 15.2398C16.9647 15.2634 17.1065 15.1453 17.1065 15.1689L17.2483 15.0508L14.6492 17.6026L14.3421 17.7443C14.0585 17.957 13.7277 18.1696 13.4442 18.3823C13.137 18.5949 12.9953 18.6894 12.9953 18.6894C13.1134 18.5477 12.7117 18.6658 12.3573 18.8076C12.0029 18.973 11.6958 19.162 10.5144 20.0126L10.0654 20.3434L9.85278 20.0835C9.49837 19.9653 9.49837 19.9181 9.33297 20.0126C9.04944 20.2252 9.00218 20.178 8.81316 20.2252C8.55326 20.2016 8.31698 19.5637 8.43512 19.4455C8.57688 19.351 8.38786 19.3746 8.0807 19.5637C7.93893 19.6582 7.77354 19.7527 7.74991 19.7291C7.72628 19.7054 7.41912 19.8944 7.27736 19.989C6.97019 20.178 6.97019 20.178 6.78117 20.2016C6.75754 20.1544 6.73392 20.1307 6.87568 20.0126C6.99382 19.8708 6.42676 19.989 5.90694 20.178C5.57616 20.3197 5.55253 20.2725 5.48164 20.178C5.41076 20.0598 5.00909 20.1071 4.6783 20.2725C4.51291 20.3434 4.34751 20.4143 4.44202 20.2489C4.39477 20.178 4.13486 20.1071 3.54417 20.178C3.52054 20.1307 3.49691 20.0835 3.63868 19.9653C3.75682 19.8236 3.59142 19.8944 3.04798 20.0362C2.69357 20.1544 2.31552 20.2252 2.29189 20.2016C2.26827 20.1544 2.10287 20.2252 1.93748 20.3197C1.77208 20.4143 1.58306 20.4379 1.53581 20.3434C1.48855 20.2489 1.2759 20.2489 1.11051 20.3197C1.08688 20.2725 0.874228 20.2489 0.803344 20.1307C0.732461 20.0126 0.519811 19.989 0.519811 19.989C0.519811 19.9653 0.496183 19.9417 0.63795 19.8236C0.921483 19.6109 0.874228 19.4928 0.567067 19.6582C0.0945111 19.9417 -0.0472555 19.6818 0.189022 19.3038Z"
    fill="black"
  />
  <path
    d="M10.6326 41.1359C10.3727 41.065 9.99464 41.2304 9.54571 41.3722C9.04953 41.5376 8.74236 41.6085 8.69511 41.6321C8.6006 41.514 8.36432 41.4195 8.15167 41.4667C7.98628 41.514 7.65549 41.4431 7.46646 41.325C7.30107 41.3486 6.97028 41.2777 6.82852 41.3013C6.63949 41.1832 6.35596 41.0887 6.23782 40.9469C6.16694 40.8051 5.95429 40.7106 5.78889 40.7106C5.6235 40.7343 5.50536 40.5925 5.4581 40.4507C5.43448 40.309 5.33996 40.309 5.1982 40.3326C5.10369 40.3326 4.89104 40.2144 4.7729 39.9309C4.65476 39.7891 4.51299 39.6474 4.41848 39.6474C4.15858 39.5056 3.63877 38.9385 3.63877 38.7732C3.68602 38.7732 3.59151 38.7732 3.497 38.7732C3.40249 38.7732 3.21346 38.4896 2.71728 37.7099C2.69365 37.5681 2.57552 37.4027 2.481 37.2373C2.31561 37.2137 2.24473 37.0483 2.26835 36.7648C2.31561 36.4813 2.24473 36.1741 2.2211 35.8669C2.00845 34.9927 2.03208 34.7092 2.12659 34.2839C2.19747 34.0003 2.2211 33.4096 2.26835 32.9843C2.38649 31.9683 2.481 31.543 2.55189 31.2595C2.62277 30.976 2.62277 30.976 2.59914 30.976C2.59914 30.976 2.6464 30.8342 2.69365 30.6925C2.74091 30.5507 2.74091 30.5507 2.71728 30.5507C2.71728 30.5507 2.81179 30.2672 2.83542 30.1254C2.92993 29.8419 3.0717 29.4402 3.09533 29.4402C3.09533 29.4402 3.11895 29.4402 3.14258 29.2984C3.18984 29.1566 3.23709 29.0149 3.30798 28.8967C3.35523 28.755 3.42612 28.6132 3.44974 28.4714C3.52063 28.1879 3.52063 28.1879 3.52063 28.3297C3.59151 28.4714 3.61514 28.4951 3.70965 28.0698C3.7569 27.7862 3.7569 27.7862 3.85141 27.6445C3.89867 27.6445 4.01681 27.6681 4.25309 27.6681C4.48936 27.6681 4.84378 27.6208 5.22183 27.5263C5.48173 27.4554 5.38722 27.5027 5.4581 27.5027C5.48173 27.5263 5.50536 27.5263 5.52899 27.55C5.52899 27.5736 5.71801 27.4554 5.83615 27.3846C5.95429 27.3137 6.02517 27.2664 6.07243 27.2428C6.21419 27.101 6.59224 26.9593 6.85214 26.6757C7.20656 26.534 7.53735 26.3922 7.56098 26.3449C7.75 26.3686 8.38795 25.896 8.81325 25.3998C9.00227 25.1872 9.30943 25.069 9.30943 25.069C9.33306 25.0454 9.61659 24.9509 9.82924 24.691C10.0183 24.4783 10.3491 24.3129 10.3727 24.2893C10.5144 24.3366 10.7507 24.313 10.8216 24.1948C10.9397 24.0767 10.9634 24.0294 10.9634 24.053C11.0343 24.1948 11.1524 24.2657 11.1997 24.2184C11.3887 24.2184 13.6097 23.2261 13.6806 23.1316C13.7042 22.8953 15.4054 23.2024 15.4054 23.2024C15.4999 23.5332 15.5472 23.8877 15.6653 24.1948C15.7834 24.502 15.8071 24.6674 15.8071 24.6674C15.6417 24.6201 15.5472 25.1872 15.5472 25.6125C15.5944 26.0142 15.6889 26.3213 16.3978 27.2901L16.6577 27.6445L16.2087 28.1643C15.878 28.755 15.8307 28.8259 15.9016 28.9676C16.0906 29.1803 16.0433 29.2512 16.0433 29.4874C15.9016 29.8655 14.9328 30.7633 14.7911 30.6925C14.6729 30.5979 14.6729 30.8106 14.862 31.0705C14.9801 31.165 15.0274 31.3068 15.0037 31.3304C14.9565 31.3777 15.1455 31.5903 15.2636 31.7084C15.4527 31.9211 15.429 31.9447 15.4527 32.1574C15.3818 32.2283 15.3345 32.2755 15.2164 32.2046C15.051 32.181 15.0746 32.7953 15.24 33.2679C15.3818 33.5514 15.3109 33.6223 15.1691 33.7877C14.9565 34.0003 14.9801 34.402 15.1219 34.6619C15.1927 34.7801 15.2636 34.9454 15.051 34.9454C14.9565 35.0636 14.7674 35.418 14.7438 36.0796C14.6493 36.1741 14.5784 36.2214 14.4367 36.1741C14.2476 36.1505 14.3185 36.2922 14.3894 36.812C14.4603 37.1428 14.4839 37.5209 14.3894 37.5918C14.3185 37.6626 14.3658 37.8044 14.4603 37.8989C14.5548 38.0171 14.5312 38.2061 14.2949 38.4187C14.0586 38.6314 13.9405 38.8913 13.9641 39.0331C13.8696 39.1039 13.6333 39.4584 13.3025 39.671C12.9717 39.86 12.7591 40.1672 12.7591 40.1672C12.7118 40.1908 12.6409 40.2381 12.4519 40.1672C12.1448 40.0254 11.8612 40.1436 11.9794 40.4035C12.0739 40.5925 11.9321 40.7815 11.6486 40.9469C11.5068 41.0178 11.3178 41.0887 11.176 41.1123C10.9634 41.1596 10.798 41.1596 10.6326 41.1359Z"
    fill="black"
  />
  <path
    d="M6.61584 9.28575C6.52132 9.21487 6.35593 9.2385 6.14328 9.26212C5.907 9.28575 5.78886 9.30938 5.76523 9.30938C5.74161 9.2385 5.62347 9.19124 5.55259 9.19124C5.4817 9.19124 5.33994 9.14399 5.24542 9.09673C5.17454 9.09673 5.03277 9.04947 4.96189 9.0731C4.89101 9.00222 4.74924 8.95496 4.67836 8.90771C4.6311 8.83682 4.53659 8.78957 4.46571 8.78957C4.39482 8.8132 4.32394 8.74231 4.30031 8.67143C4.27669 8.60055 4.22943 8.60055 4.15855 8.62418C4.11129 8.62418 3.99315 8.57692 3.92227 8.45878C3.85139 8.3879 3.75687 8.34064 3.70962 8.36427C3.56785 8.31701 3.23706 8.10436 3.21343 8.03348C3.23706 8.03348 3.18981 8.03348 3.14255 8.05711C3.0953 8.08074 2.95353 7.93897 2.52823 7.67906C2.48097 7.60818 2.38646 7.56092 2.29195 7.51367C2.19744 7.5373 2.12656 7.49004 2.05567 7.34827C2.00842 7.20651 1.91391 7.08837 1.8194 6.97023C1.46498 6.61581 1.37047 6.49767 1.32321 6.28502C1.27596 6.14326 1.13419 5.88335 0.992424 5.69433C0.685263 5.2454 0.590751 5.05638 0.543496 4.91461C0.49624 4.77285 0.472613 4.77285 0.448985 4.79647C0.448985 4.79647 0.425357 4.72559 0.401729 4.65471C0.378101 4.51294 0.378101 4.51294 0.354474 4.53657C0.354474 4.53657 0.307218 4.3948 0.28359 4.32392C0.236335 4.18215 0.259963 3.94587 0.330846 3.94587C0.354474 3.94587 0.378101 3.92225 0.378101 3.85136C0.354474 3.78048 0.425357 3.68597 0.49624 3.59146C0.567124 3.49695 0.638007 3.40244 0.638007 3.33155C0.638007 3.18979 0.661635 3.16616 0.850657 3.18979C1.25233 3.16616 1.37047 3.14253 1.48861 2.88262C1.58312 2.71723 1.63037 2.6936 1.93753 2.55184C2.43372 2.4337 4.15855 2.07928 5.97789 1.98477C7.7736 1.86663 9.56931 2.12654 9.78196 2.19742C10.0655 2.22105 10.6089 2.38644 11.0579 2.48095C11.4832 2.64635 11.8612 2.81174 11.9085 2.83537C12.0266 2.92988 12.8772 3.26067 13.5624 3.5442C13.8696 3.66234 14.1295 3.87499 14.1295 3.87499C14.1531 3.89862 14.3894 4.06401 14.6965 4.25304C14.9801 4.3948 15.2636 4.65471 15.2872 4.67834C15.3109 4.77285 15.429 4.93824 15.5471 5.00912C15.6889 5.10364 15.7598 5.15089 15.7362 5.12726C15.6416 5.15089 15.618 5.22177 15.6889 5.26903C15.7598 5.4108 15.9252 5.85972 15.9488 6.16689C15.9488 6.45042 16.0906 6.54493 16.3741 6.89935C16.5868 7.06474 16.0197 8.05711 15.7125 7.9626C15.4526 7.91534 15.24 7.91534 14.6965 8.2225L14.5075 8.34064C14.3657 8.2225 14.224 8.10436 14.0822 8.00985C13.6097 7.77357 13.5624 7.74995 13.4915 7.7972C13.397 7.91534 13.3261 7.86809 13.1844 7.86809C12.9245 7.77357 12.0739 7.30102 12.0502 7.23014C12.0739 7.15925 11.9321 7.18288 11.8376 7.30102C11.8139 7.3719 11.7431 7.41916 11.7194 7.41916C11.6722 7.39553 11.6013 7.5373 11.5777 7.60818C11.5068 7.72632 11.4832 7.72632 11.365 7.77357C11.2941 7.74995 11.2469 7.72632 11.2469 7.65544C11.1996 7.56092 10.8688 7.67906 10.6326 7.84446C10.5144 7.9626 10.4672 7.93897 10.3254 7.91534C10.1364 7.86809 9.92372 7.98622 9.85284 8.10436C9.80559 8.17525 9.75833 8.2225 9.68745 8.15162C9.59294 8.12799 9.35666 8.15162 9.07312 8.34064C9.00224 8.34064 8.95499 8.31701 8.93136 8.24613C8.8841 8.17525 8.83685 8.24613 8.67145 8.43515C8.57694 8.57692 8.4588 8.69506 8.41155 8.69506C8.36429 8.69506 8.34066 8.76594 8.34066 8.83682C8.34066 8.90771 8.26978 8.97859 8.15164 8.97859C8.05713 8.97859 7.96262 9.04947 7.93899 9.12036C7.89174 9.12036 7.7736 9.19124 7.63183 9.19124C7.51369 9.19124 7.39555 9.26212 7.39555 9.26212C7.37192 9.26212 7.3483 9.26212 7.30104 9.19124C7.23016 9.04947 7.11202 9.04947 7.13565 9.19124C7.13565 9.40389 6.87574 9.40389 6.61584 9.28575Z"
    fill="black"
  />
  <path
    d="M64.7387 16.2105C67.5624 16.2105 69.0071 17.9178 69.0071 20.8729V21.4639H66.249V20.6759C66.249 19.3625 65.7237 18.8372 64.8044 18.8372C63.885 18.8372 63.3597 19.3625 63.3597 20.6759C63.3597 24.4846 69.0071 25.2069 69.0071 30.4603C69.0071 33.4153 67.5624 35.1227 64.673 35.1227C61.8493 35.1227 60.339 33.4153 60.339 30.4603V29.344H63.097V30.6573C63.097 31.9707 63.688 32.4303 64.6074 32.4303C65.5267 32.4303 66.1177 31.9707 66.1177 30.6573C66.1177 26.8486 60.4703 26.1263 60.4703 20.8729C60.4703 17.9178 61.915 16.2105 64.7387 16.2105Z"
    fill="black"
  />
  <path
    d="M88.2479 34.8603H85.2929L84.7675 31.5112H81.2215L80.6961 34.8603H78.0038L80.9588 16.4077H85.2272L88.2479 34.8603ZM81.6155 29.0159H84.4392L82.9945 19.6911L81.6155 29.0159Z"
    fill="black"
  />
  <path
    d="M101.513 27.5715L100.593 29.2788V34.9262H97.704V16.4737H100.593V24.4851L104.402 16.4737H107.291L103.286 24.6821L107.291 34.9262H104.336L101.513 27.5715Z"
    fill="black"
  />
  <path
    d="M119.177 24.2221H123.183V26.8488H119.177V32.2336H124.168V34.8603H116.288V16.4077H124.168V19.0344H119.177V24.2221Z"
    fill="black"
  />
  <path
    d="M134.149 16.4737H138.746C141.636 16.4737 143.08 18.0497 143.08 21.0047V30.3295C143.08 33.2845 141.636 34.8606 138.746 34.8606H134.149V16.4737ZM137.039 19.1004V32.2995H138.68C139.6 32.2995 140.125 31.8399 140.125 30.5265V20.9391C140.125 19.6257 139.6 19.166 138.68 19.166H137.039V19.1004Z"
    fill="black"
  />
  <path
    d="M155.426 24.2221H159.431V26.8488H155.426V32.2336H160.416V34.8603H152.536V16.4077H160.416V19.0344H155.426V24.2221Z"
    fill="black"
  />
  <path
    d="M172.499 21.5298V34.8603H169.872V16.4077H173.484L176.439 27.4398V16.4077H179V34.8603H176.045L172.499 21.5298Z"
    fill="black"
  />
</svg>
